<?xml version="1.0" encoding="us-ascii" standalone="no"?><svg xmlns="http://www.w3.org/2000/svg" xmlns:xlink="http://www.w3.org/1999/xlink" contentStyleType="text/css" height="886px" preserveAspectRatio="none" style="width:1623px;height:886px;background:#FFFFFF;" version="1.1" viewBox="0 0 1623 886" width="1623px" zoomAndPan="magnify"><defs/><g><rect fill="#DDDDDD" height="874.2266" style="stroke:#181818;stroke-width:0.5;" width="235.5" x="1" y="6"/><text fill="#000000" font-family="sans-serif" font-size="13" font-weight="bold" lengthAdjust="spacing" textLength="53" x="92.25" y="20.0283">frontend</text><rect fill="#DDDDDD" height="874.2266" style="stroke:#181818;stroke-width:0.5;" width="1231.5" x="386" y="6"/><text fill="#000000" font-family="sans-serif" font-size="13" font-weight="bold" lengthAdjust="spacing" textLength="54" x="974.75" y="20.0283">backend</text><rect fill="#FFFFFF" height="763.6934" style="stroke:#181818;stroke-width:1.0;" width="10" x="61.5" y="70.9121"/><rect fill="#FFFFFF" height="740.4023" style="stroke:#181818;stroke-width:1.0;" width="10" x="197.5" y="94.2031"/><rect fill="#FFFFFF" height="740.4023" style="stroke:#181818;stroke-width:1.0;" width="10" x="197.5" y="94.2031"/><rect fill="#FFFFFF" height="700.1113" style="stroke:#181818;stroke-width:1.0;" width="10" x="418.5" y="94.2031"/><rect fill="#FFFFFF" height="606.2383" style="stroke:#181818;stroke-width:1.0;" width="10" x="639.5" y="156.7852"/><rect fill="#FFFFFF" height="543.6563" style="stroke:#181818;stroke-width:1.0;" width="10" x="903.5" y="188.0762"/><rect fill="#FFFFFF" height="418.4922" style="stroke:#181818;stroke-width:1.0;" width="10" x="1165.5" y="219.3672"/><rect fill="#FFFFFF" height="28" style="stroke:#181818;stroke-width:1.0;" width="10" x="1170.5" y="446.4043"/><rect fill="#FFFFFF" height="93.873" style="stroke:#181818;stroke-width:1.0;" width="10" x="1343.5" y="313.2402"/><rect fill="#FFFFFF" height="31.291" style="stroke:#181818;stroke-width:1.0;" width="10" x="1343.5" y="512.6953"/><rect fill="#FFFFFF" height="31.291" style="stroke:#181818;stroke-width:1.0;" width="10" x="1343.5" y="669.1504"/><rect fill="#FFFFFF" height="31.291" style="stroke:#181818;stroke-width:1.0;" width="10" x="1488.5" y="344.5313"/><rect fill="#FFFFFF" height="31.291" style="stroke:#181818;stroke-width:1.0;" width="10" x="1571" y="250.6582"/><rect fill="#FFFFFF" height="31.291" style="stroke:#181818;stroke-width:1.0;" width="10" x="1571" y="575.2773"/><line style="stroke:#181818;stroke-width:0.5;stroke-dasharray:5.0,5.0;" x1="66" x2="66" y1="60.9121" y2="843.6055"/><line style="stroke:#181818;stroke-width:0.5;stroke-dasharray:5.0,5.0;" x1="197.5" x2="197.5" y1="60.9121" y2="843.6055"/><line style="stroke:#181818;stroke-width:0.5;stroke-dasharray:5.0,5.0;" x1="423" x2="423" y1="60.9121" y2="843.6055"/><line style="stroke:#181818;stroke-width:0.5;stroke-dasharray:5.0,5.0;" x1="644.5" x2="644.5" y1="60.9121" y2="843.6055"/><line style="stroke:#181818;stroke-width:0.5;stroke-dasharray:5.0,5.0;" x1="908" x2="908" y1="60.9121" y2="843.6055"/><line style="stroke:#181818;stroke-width:0.5;stroke-dasharray:5.0,5.0;" x1="1170.5" x2="1170.5" y1="60.9121" y2="843.6055"/><line style="stroke:#181818;stroke-width:0.5;stroke-dasharray:5.0,5.0;" x1="1348.5" x2="1348.5" y1="60.9121" y2="843.6055"/><line style="stroke:#181818;stroke-width:0.5;stroke-dasharray:5.0,5.0;" x1="1421.5" x2="1421.5" y1="60.9121" y2="843.6055"/><line style="stroke:#181818;stroke-width:0.5;stroke-dasharray:5.0,5.0;" x1="1493.5" x2="1493.5" y1="60.9121" y2="843.6055"/><line style="stroke:#181818;stroke-width:0.5;stroke-dasharray:5.0,5.0;" x1="1575.5" x2="1575.5" y1="60.9121" y2="843.6055"/><rect fill="#E2E2F0" height="32.6211" rx="2.5" ry="2.5" style="stroke:#181818;stroke-width:0.5;" width="123" x="5" y="27.291"/><text fill="#000000" font-family="sans-serif" font-size="14" lengthAdjust="spacing" textLength="109" x="12" y="49.3984">edit-x-component</text><rect fill="#E2E2F0" height="32.6211" rx="2.5" ry="2.5" style="stroke:#181818;stroke-width:0.5;" width="123" x="5" y="842.6055"/><text fill="#000000" font-family="sans-serif" font-size="14" lengthAdjust="spacing" textLength="109" x="12" y="864.7129">edit-x-component</text><rect fill="#E2E2F0" height="32.6211" rx="2.5" ry="2.5" style="stroke:#181818;stroke-width:0.5;" width="70" x="162.5" y="27.291"/><text fill="#000000" font-family="sans-serif" font-size="14" lengthAdjust="spacing" textLength="56" x="169.5" y="49.3984">x-service</text><rect fill="#E2E2F0" height="32.6211" rx="2.5" ry="2.5" style="stroke:#181818;stroke-width:0.5;" width="70" x="162.5" y="842.6055"/><text fill="#000000" font-family="sans-serif" font-size="14" lengthAdjust="spacing" textLength="56" x="169.5" y="864.7129">x-service</text><rect fill="#E2E2F0" height="32.6211" rx="2.5" ry="2.5" style="stroke:#181818;stroke-width:0.5;" width="67" x="390" y="27.291"/><text fill="#000000" font-family="sans-serif" font-size="14" lengthAdjust="spacing" textLength="53" x="397" y="49.3984">:xRouter</text><rect fill="#E2E2F0" height="32.6211" rx="2.5" ry="2.5" style="stroke:#181818;stroke-width:0.5;" width="67" x="390" y="842.6055"/><text fill="#000000" font-family="sans-serif" font-size="14" lengthAdjust="spacing" textLength="53" x="397" y="864.7129">:xRouter</text><rect fill="#E2E2F0" height="32.6211" rx="2.5" ry="2.5" style="stroke:#181818;stroke-width:0.5;" width="86" x="601.5" y="27.291"/><text fill="#000000" font-family="sans-serif" font-size="14" lengthAdjust="spacing" textLength="72" x="608.5" y="49.3984">:xController</text><rect fill="#E2E2F0" height="32.6211" rx="2.5" ry="2.5" style="stroke:#181818;stroke-width:0.5;" width="86" x="601.5" y="842.6055"/><text fill="#000000" font-family="sans-serif" font-size="14" lengthAdjust="spacing" textLength="72" x="608.5" y="864.7129">:xController</text><rect fill="#E2E2F0" height="32.6211" rx="2.5" ry="2.5" style="stroke:#181818;stroke-width:0.5;" width="71" x="873" y="27.291"/><text fill="#000000" font-family="sans-serif" font-size="14" lengthAdjust="spacing" textLength="57" x="880" y="49.3984">:xService</text><rect fill="#E2E2F0" height="32.6211" rx="2.5" ry="2.5" style="stroke:#181818;stroke-width:0.5;" width="71" x="873" y="842.6055"/><text fill="#000000" font-family="sans-serif" font-size="14" lengthAdjust="spacing" textLength="57" x="880" y="864.7129">:xService</text><rect fill="#E2E2F0" height="32.6211" rx="2.5" ry="2.5" style="stroke:#181818;stroke-width:0.5;" width="92" x="1124.5" y="27.291"/><text fill="#000000" font-family="sans-serif" font-size="14" lengthAdjust="spacing" textLength="78" x="1131.5" y="49.3984">:xRepository</text><rect fill="#E2E2F0" height="32.6211" rx="2.5" ry="2.5" style="stroke:#181818;stroke-width:0.5;" width="92" x="1124.5" y="842.6055"/><text fill="#000000" font-family="sans-serif" font-size="14" lengthAdjust="spacing" textLength="78" x="1131.5" y="864.7129">:xRepository</text><rect fill="#E2E2F0" height="32.6211" rx="2.5" ry="2.5" style="stroke:#181818;stroke-width:0.5;" width="72" x="1312.5" y="27.291"/><text fill="#000000" font-family="sans-serif" font-size="14" lengthAdjust="spacing" textLength="58" x="1319.5" y="49.3984">:xMapper</text><rect fill="#E2E2F0" height="32.6211" rx="2.5" ry="2.5" style="stroke:#181818;stroke-width:0.5;" width="72" x="1312.5" y="842.6055"/><text fill="#000000" font-family="sans-serif" font-size="14" lengthAdjust="spacing" textLength="58" x="1319.5" y="864.7129">:xMapper</text><rect fill="#E2E2F0" height="32.6211" rx="2.5" ry="2.5" style="stroke:#181818;stroke-width:0.5;" width="54" x="1394.5" y="27.291"/><text fill="#000000" font-family="sans-serif" font-size="14" lengthAdjust="spacing" textLength="40" x="1401.5" y="49.3984">:xDTO</text><rect fill="#E2E2F0" height="32.6211" rx="2.5" ry="2.5" style="stroke:#181818;stroke-width:0.5;" width="54" x="1394.5" y="842.6055"/><text fill="#000000" font-family="sans-serif" font-size="14" lengthAdjust="spacing" textLength="40" x="1401.5" y="864.7129">:xDTO</text><rect fill="#E2E2F0" height="32.6211" rx="2.5" ry="2.5" style="stroke:#181818;stroke-width:0.5;" width="70" x="1458.5" y="27.291"/><text fill="#000000" font-family="sans-serif" font-size="14" lengthAdjust="spacing" textLength="56" x="1465.5" y="49.3984">domain:x</text><rect fill="#E2E2F0" height="32.6211" rx="2.5" ry="2.5" style="stroke:#181818;stroke-width:0.5;" width="70" x="1458.5" y="842.6055"/><text fill="#000000" font-family="sans-serif" font-size="14" lengthAdjust="spacing" textLength="56" x="1465.5" y="864.7129">domain:x</text><rect fill="#E2E2F0" height="32.6211" rx="2.5" ry="2.5" style="stroke:#181818;stroke-width:0.5;" width="75" x="1538.5" y="27.291"/><text fill="#000000" font-family="sans-serif" font-size="14" lengthAdjust="spacing" textLength="61" x="1545.5" y="49.3984">:xSchema</text><rect fill="#E2E2F0" height="32.6211" rx="2.5" ry="2.5" style="stroke:#181818;stroke-width:0.5;" width="75" x="1538.5" y="842.6055"/><text fill="#000000" font-family="sans-serif" font-size="14" lengthAdjust="spacing" textLength="61" x="1545.5" y="864.7129">:xSchema</text><rect fill="#FFFFFF" height="763.6934" style="stroke:#181818;stroke-width:1.0;" width="10" x="61.5" y="70.9121"/><rect fill="#FFFFFF" height="740.4023" style="stroke:#181818;stroke-width:1.0;" width="10" x="197.5" y="94.2031"/><rect fill="#FFFFFF" height="740.4023" style="stroke:#181818;stroke-width:1.0;" width="10" x="197.5" y="94.2031"/><rect fill="#FFFFFF" height="700.1113" style="stroke:#181818;stroke-width:1.0;" width="10" x="418.5" y="94.2031"/><rect fill="#FFFFFF" height="606.2383" style="stroke:#181818;stroke-width:1.0;" width="10" x="639.5" y="156.7852"/><rect fill="#FFFFFF" height="543.6563" style="stroke:#181818;stroke-width:1.0;" width="10" x="903.5" y="188.0762"/><rect fill="#FFFFFF" height="418.4922" style="stroke:#181818;stroke-width:1.0;" width="10" x="1165.5" y="219.3672"/><rect fill="#FFFFFF" height="28" style="stroke:#181818;stroke-width:1.0;" width="10" x="1170.5" y="446.4043"/><rect fill="#FFFFFF" height="93.873" style="stroke:#181818;stroke-width:1.0;" width="10" x="1343.5" y="313.2402"/><rect fill="#FFFFFF" height="31.291" style="stroke:#181818;stroke-width:1.0;" width="10" x="1343.5" y="512.6953"/><rect fill="#FFFFFF" height="31.291" style="stroke:#181818;stroke-width:1.0;" width="10" x="1343.5" y="669.1504"/><rect fill="#FFFFFF" height="31.291" style="stroke:#181818;stroke-width:1.0;" width="10" x="1488.5" y="344.5313"/><rect fill="#FFFFFF" height="31.291" style="stroke:#181818;stroke-width:1.0;" width="10" x="1571" y="250.6582"/><rect fill="#FFFFFF" height="31.291" style="stroke:#181818;stroke-width:1.0;" width="10" x="1571" y="575.2773"/><polygon fill="#181818" points="185.5,90.2031,195.5,94.2031,185.5,98.2031,189.5,94.2031" style="stroke:#181818;stroke-width:1.0;"/><line style="stroke:#181818;stroke-width:1.0;" x1="71.5" x2="191.5" y1="94.2031" y2="94.2031"/><text fill="#000000" font-family="sans-serif" font-size="13" font-weight="bold" lengthAdjust="spacing" textLength="7" x="78.5" y="88.9404">1</text><text fill="#000000" font-family="sans-serif" font-size="13" lengthAdjust="spacing" textLength="54" x="89.5" y="88.9404">updateX()</text><polygon fill="#181818" points="406.5,121.4941,416.5,125.4941,406.5,129.4941,410.5,125.4941" style="stroke:#181818;stroke-width:1.0;"/><line style="stroke:#181818;stroke-width:1.0;" x1="207.5" x2="412.5" y1="125.4941" y2="125.4941"/><text fill="#000000" font-family="sans-serif" font-size="13" font-weight="bold" lengthAdjust="spacing" textLength="7" x="214.5" y="120.2314">2</text><text fill="#000000" font-family="sans-serif" font-size="13" lengthAdjust="spacing" textLength="41" x="225.5" y="120.2314">.put(/x)</text><polygon fill="#181818" points="627.5,152.7852,637.5,156.7852,627.5,160.7852,631.5,156.7852" style="stroke:#181818;stroke-width:1.0;"/><line style="stroke:#181818;stroke-width:1.0;" x1="428.5" x2="633.5" y1="156.7852" y2="156.7852"/><text fill="#000000" font-family="sans-serif" font-size="13" font-weight="bold" lengthAdjust="spacing" textLength="7" x="435.5" y="151.5225">3</text><text fill="#000000" font-family="sans-serif" font-size="13" lengthAdjust="spacing" textLength="131" x="446.5" y="151.5225">updatex(req, res, next)</text><polygon fill="#181818" points="891.5,184.0762,901.5,188.0762,891.5,192.0762,895.5,188.0762" style="stroke:#181818;stroke-width:1.0;"/><line style="stroke:#181818;stroke-width:1.0;" x1="649.5" x2="897.5" y1="188.0762" y2="188.0762"/><text fill="#000000" font-family="sans-serif" font-size="13" font-weight="bold" lengthAdjust="spacing" textLength="7" x="656.5" y="182.8135">4</text><text fill="#000000" font-family="sans-serif" font-size="13" lengthAdjust="spacing" textLength="224" x="667.5" y="182.8135">xOrError = updatex(req.Xody as xDTO)</text><polygon fill="#181818" points="1153.5,215.3672,1163.5,219.3672,1153.5,223.3672,1157.5,219.3672" style="stroke:#181818;stroke-width:1.0;"/><line style="stroke:#181818;stroke-width:1.0;" x1="913.5" x2="1159.5" y1="219.3672" y2="219.3672"/><text fill="#000000" font-family="sans-serif" font-size="13" font-weight="bold" lengthAdjust="spacing" textLength="7" x="920.5" y="214.1045">5</text><text fill="#000000" font-family="sans-serif" font-size="13" lengthAdjust="spacing" textLength="222" x="931.5" y="214.1045">updatedx = update(xDTO.code, xDTO)</text><polygon fill="#181818" points="1559,246.6582,1569,250.6582,1559,254.6582,1563,250.6582" style="stroke:#181818;stroke-width:1.0;"/><line style="stroke:#181818;stroke-width:1.0;" x1="1175.5" x2="1565" y1="250.6582" y2="250.6582"/><text fill="#000000" font-family="sans-serif" font-size="13" font-weight="bold" lengthAdjust="spacing" textLength="7" x="1182.5" y="245.3955">6</text><text fill="#000000" font-family="sans-serif" font-size="13" lengthAdjust="spacing" textLength="120" x="1193.5" y="245.3955">find = findOne(query)</text><polygon fill="#181818" points="1186.5,277.9492,1176.5,281.9492,1186.5,285.9492,1182.5,281.9492" style="stroke:#181818;stroke-width:1.0;"/><line style="stroke:#181818;stroke-width:1.0;stroke-dasharray:2.0,2.0;" x1="1180.5" x2="1575" y1="281.9492" y2="281.9492"/><text fill="#000000" font-family="sans-serif" font-size="13" font-weight="bold" lengthAdjust="spacing" textLength="7" x="1192.5" y="276.6865">7</text><text fill="#000000" font-family="sans-serif" font-size="13" lengthAdjust="spacing" textLength="42" x="1203.5" y="276.6865">x found</text><polygon fill="#181818" points="1331.5,309.2402,1341.5,313.2402,1331.5,317.2402,1335.5,313.2402" style="stroke:#181818;stroke-width:1.0;"/><line style="stroke:#181818;stroke-width:1.0;" x1="1175.5" x2="1337.5" y1="313.2402" y2="313.2402"/><text fill="#000000" font-family="sans-serif" font-size="13" font-weight="bold" lengthAdjust="spacing" textLength="7" x="1182.5" y="307.9775">8</text><text fill="#000000" font-family="sans-serif" font-size="13" lengthAdjust="spacing" textLength="138" x="1193.5" y="307.9775">x = toDomain(xCreated)</text><polygon fill="#181818" points="1476.5,340.5313,1486.5,344.5313,1476.5,348.5313,1480.5,344.5313" style="stroke:#181818;stroke-width:1.0;"/><line style="stroke:#181818;stroke-width:1.0;" x1="1353.5" x2="1482.5" y1="344.5313" y2="344.5313"/><text fill="#000000" font-family="sans-serif" font-size="13" font-weight="bold" lengthAdjust="spacing" textLength="7" x="1360.5" y="339.2686">9</text><text fill="#000000" font-family="sans-serif" font-size="13" lengthAdjust="spacing" textLength="96" x="1371.5" y="339.2686">create(xCreated)</text><polygon fill="#181818" points="1364.5,371.8223,1354.5,375.8223,1364.5,379.8223,1360.5,375.8223" style="stroke:#181818;stroke-width:1.0;"/><line style="stroke:#181818;stroke-width:1.0;stroke-dasharray:2.0,2.0;" x1="1358.5" x2="1492.5" y1="375.8223" y2="375.8223"/><text fill="#000000" font-family="sans-serif" font-size="13" font-weight="bold" lengthAdjust="spacing" textLength="14" x="1370.5" y="370.5596">10</text><text fill="#000000" font-family="sans-serif" font-size="13" lengthAdjust="spacing" textLength="7" x="1388.5" y="370.5596">x</text><polygon fill="#181818" points="1186.5,403.1133,1176.5,407.1133,1186.5,411.1133,1182.5,407.1133" style="stroke:#181818;stroke-width:1.0;"/><line style="stroke:#181818;stroke-width:1.0;stroke-dasharray:2.0,2.0;" x1="1180.5" x2="1347.5" y1="407.1133" y2="407.1133"/><text fill="#000000" font-family="sans-serif" font-size="13" font-weight="bold" lengthAdjust="spacing" textLength="14" x="1192.5" y="401.8506">11</text><text fill="#000000" font-family="sans-serif" font-size="13" lengthAdjust="spacing" textLength="7" x="1210.5" y="401.8506">x</text><line style="stroke:#181818;stroke-width:1.0;" x1="1180.5" x2="1222.5" y1="438.4043" y2="438.4043"/><line style="stroke:#181818;stroke-width:1.0;" x1="1222.5" x2="1222.5" y1="438.4043" y2="451.4043"/><line style="stroke:#181818;stroke-width:1.0;" x1="1181.5" x2="1222.5" y1="451.4043" y2="451.4043"/><polygon fill="#181818" points="1191.5,447.4043,1181.5,451.4043,1191.5,455.4043,1187.5,451.4043" style="stroke:#181818;stroke-width:1.0;"/><text fill="#000000" font-family="sans-serif" font-size="13" font-weight="bold" lengthAdjust="spacing" textLength="14" x="1187.5" y="433.1416">12</text><text fill="#000000" font-family="sans-serif" font-size="13" lengthAdjust="spacing" textLength="89" x="1205.5" y="433.1416">update x object</text><polygon fill="#181818" points="1331.5,508.6953,1341.5,512.6953,1331.5,516.6953,1335.5,512.6953" style="stroke:#181818;stroke-width:1.0;"/><line style="stroke:#181818;stroke-width:1.0;" x1="1175.5" x2="1337.5" y1="512.6953" y2="512.6953"/><text fill="#000000" font-family="sans-serif" font-size="13" font-weight="bold" lengthAdjust="spacing" textLength="14" x="1182.5" y="507.4326">13</text><text fill="#000000" font-family="sans-serif" font-size="13" lengthAdjust="spacing" textLength="95" x="1200.5" y="507.4326">toPersistence(x)</text><polygon fill="#181818" points="1186.5,539.9863,1176.5,543.9863,1186.5,547.9863,1182.5,543.9863" style="stroke:#181818;stroke-width:1.0;"/><line style="stroke:#181818;stroke-width:1.0;stroke-dasharray:2.0,2.0;" x1="1180.5" x2="1347.5" y1="543.9863" y2="543.9863"/><text fill="#000000" font-family="sans-serif" font-size="13" font-weight="bold" lengthAdjust="spacing" textLength="14" x="1192.5" y="538.7236">14</text><text fill="#000000" font-family="sans-serif" font-size="13" lengthAdjust="spacing" textLength="78" x="1210.5" y="538.7236">persistence x</text><polygon fill="#181818" points="1559,571.2773,1569,575.2773,1559,579.2773,1563,575.2773" style="stroke:#181818;stroke-width:1.0;"/><line style="stroke:#181818;stroke-width:1.0;" x1="1175.5" x2="1565" y1="575.2773" y2="575.2773"/><text fill="#000000" font-family="sans-serif" font-size="13" font-weight="bold" lengthAdjust="spacing" textLength="14" x="1182.5" y="570.0146">15</text><text fill="#000000" font-family="sans-serif" font-size="13" lengthAdjust="spacing" textLength="141" x="1200.5" y="570.0146">replaceOne(query, rawx)</text><polygon fill="#181818" points="1186.5,602.5684,1176.5,606.5684,1186.5,610.5684,1182.5,606.5684" style="stroke:#181818;stroke-width:1.0;"/><line style="stroke:#181818;stroke-width:1.0;stroke-dasharray:2.0,2.0;" x1="1180.5" x2="1575" y1="606.5684" y2="606.5684"/><text fill="#000000" font-family="sans-serif" font-size="13" font-weight="bold" lengthAdjust="spacing" textLength="14" x="1192.5" y="601.3057">16</text><text fill="#000000" font-family="sans-serif" font-size="13" lengthAdjust="spacing" textLength="57" x="1210.5" y="601.3057">updated x</text><polygon fill="#181818" points="924.5,633.8594,914.5,637.8594,924.5,641.8594,920.5,637.8594" style="stroke:#181818;stroke-width:1.0;"/><line style="stroke:#181818;stroke-width:1.0;stroke-dasharray:2.0,2.0;" x1="918.5" x2="1169.5" y1="637.8594" y2="637.8594"/><text fill="#000000" font-family="sans-serif" font-size="13" font-weight="bold" lengthAdjust="spacing" textLength="14" x="930.5" y="632.5967">17</text><text fill="#000000" font-family="sans-serif" font-size="13" lengthAdjust="spacing" textLength="57" x="948.5" y="632.5967">updated x</text><polygon fill="#181818" points="1331.5,665.1504,1341.5,669.1504,1331.5,673.1504,1335.5,669.1504" style="stroke:#181818;stroke-width:1.0;"/><line style="stroke:#181818;stroke-width:1.0;" x1="913.5" x2="1337.5" y1="669.1504" y2="669.1504"/><text fill="#000000" font-family="sans-serif" font-size="13" font-weight="bold" lengthAdjust="spacing" textLength="14" x="920.5" y="663.8877">18</text><text fill="#000000" font-family="sans-serif" font-size="13" lengthAdjust="spacing" textLength="219" x="938.5" y="663.8877">updatedxDTO = toDTO(updatedxDTO)</text><polygon fill="#181818" points="924.5,696.4414,914.5,700.4414,924.5,704.4414,920.5,700.4414" style="stroke:#181818;stroke-width:1.0;"/><line style="stroke:#181818;stroke-width:1.0;stroke-dasharray:2.0,2.0;" x1="918.5" x2="1347.5" y1="700.4414" y2="700.4414"/><text fill="#000000" font-family="sans-serif" font-size="13" font-weight="bold" lengthAdjust="spacing" textLength="14" x="930.5" y="695.1787">19</text><text fill="#000000" font-family="sans-serif" font-size="13" lengthAdjust="spacing" textLength="79" x="948.5" y="695.1787">updatedxDTO</text><polygon fill="#181818" points="660.5,727.7324,650.5,731.7324,660.5,735.7324,656.5,731.7324" style="stroke:#181818;stroke-width:1.0;"/><line style="stroke:#181818;stroke-width:1.0;stroke-dasharray:2.0,2.0;" x1="654.5" x2="907.5" y1="731.7324" y2="731.7324"/><text fill="#000000" font-family="sans-serif" font-size="13" font-weight="bold" lengthAdjust="spacing" textLength="14" x="666.5" y="726.4697">20</text><text fill="#000000" font-family="sans-serif" font-size="13" lengthAdjust="spacing" textLength="79" x="684.5" y="726.4697">updatedxDTO</text><polygon fill="#181818" points="439.5,759.0234,429.5,763.0234,439.5,767.0234,435.5,763.0234" style="stroke:#181818;stroke-width:1.0;"/><line style="stroke:#181818;stroke-width:1.0;stroke-dasharray:2.0,2.0;" x1="433.5" x2="643.5" y1="763.0234" y2="763.0234"/><text fill="#000000" font-family="sans-serif" font-size="13" font-weight="bold" lengthAdjust="spacing" textLength="14" x="445.5" y="757.7607">21</text><text fill="#000000" font-family="sans-serif" font-size="13" lengthAdjust="spacing" textLength="169" x="463.5" y="757.7607">updatedxDTO and status 201</text><polygon fill="#181818" points="218.5,790.3145,208.5,794.3145,218.5,798.3145,214.5,794.3145" style="stroke:#181818;stroke-width:1.0;"/><line style="stroke:#181818;stroke-width:1.0;stroke-dasharray:2.0,2.0;" x1="212.5" x2="422.5" y1="794.3145" y2="794.3145"/><text fill="#000000" font-family="sans-serif" font-size="13" font-weight="bold" lengthAdjust="spacing" textLength="14" x="224.5" y="789.0518">22</text><text fill="#000000" font-family="sans-serif" font-size="13" lengthAdjust="spacing" textLength="169" x="242.5" y="789.0518">updatedxDTO and status 201</text><polygon fill="#181818" points="82.5,821.6055,72.5,825.6055,82.5,829.6055,78.5,825.6055" style="stroke:#181818;stroke-width:1.0;"/><line style="stroke:#181818;stroke-width:1.0;stroke-dasharray:2.0,2.0;" x1="76.5" x2="196.5" y1="825.6055" y2="825.6055"/><text fill="#000000" font-family="sans-serif" font-size="13" font-weight="bold" lengthAdjust="spacing" textLength="14" x="88.5" y="820.3428">23</text><text fill="#000000" font-family="sans-serif" font-size="13" lengthAdjust="spacing" textLength="79" x="106.5" y="820.3428">updatedxDTO</text><!--SRC=[ZLDDZziW4BtpAr1ENYb9FuwHjbBbxM4FbbVsLlALm4JrRW8inbloxplWs04xs_PY0_FUpECnmtghP7_QWo5xvUZgO9Iq8CMAQ6PiorlDfAKh4AtTk0rN9wqaIBkYhADvMQGej-d0lBSSGlZduv1op_ZhCkFELQgtO0Bq-zFZF9gZ3gEEnmkYoUU0EYhLr8lae5NNMcNE0w2Q0mgczPYxc0SVdiiGmNyQ4kh4Mhbp0syXYV-24xie2cj26BVjExCGt2BuePjlQ0tTqLuBF6-okoi6BKisqzeRX2IauWgvMztRx9Ex8twBfqq-9NIPWRSrDT2jgGHde_He8W8zl4QuAyqFOvIXzp5psoXnzZVm9iJScY3BSwkfb70JD_FmBLS2rWjcHP0JgWPFa7vefK2g_vKIihSUp3cfDPWt4ZPZMKSFgfU225XYXn95GDrJgnx2KsKkD-2bnkaBqeHdQ13CG_WcZ3H3vP0pgHduawWaL8nAhZQX8BL_0MuJJs9I5SktwWbCrtOuXXo5BOMFsVKLzf68oN43-iWuJ6vZWx3Vxdyylpprh4Ba-jXFju7Ls3P5r3RO8CCRFPTPT7RxgdLAd5-q7b3vNr1rQFjfU68L31kniyps7Vtw-Kl2oeVXIiVrNwnnK97bPptLHFu0]--></g></svg>