<?xml version="1.0" encoding="us-ascii" standalone="no"?><svg xmlns="http://www.w3.org/2000/svg" xmlns:xlink="http://www.w3.org/1999/xlink" contentStyleType="text/css" height="796px" preserveAspectRatio="none" style="width:1479px;height:796px;background:#FFFFFF;" version="1.1" viewBox="0 0 1479 796" width="1479px" zoomAndPan="magnify"><defs/><g><rect fill="#FFFFFF" height="701.1113" style="stroke:#181818;stroke-width:1.0;" width="10" x="57" y="48.6211"/><rect fill="#FFFFFF" height="701.1113" style="stroke:#181818;stroke-width:1.0;" width="10" x="278" y="48.6211"/><rect fill="#FFFFFF" height="606.2383" style="stroke:#181818;stroke-width:1.0;" width="10" x="499" y="103.2031"/><rect fill="#FFFFFF" height="543.6563" style="stroke:#181818;stroke-width:1.0;" width="10" x="763" y="134.4941"/><rect fill="#FFFFFF" height="418.4922" style="stroke:#181818;stroke-width:1.0;" width="10" x="1025" y="165.7852"/><rect fill="#FFFFFF" height="28" style="stroke:#181818;stroke-width:1.0;" width="10" x="1030" y="392.8223"/><rect fill="#FFFFFF" height="93.873" style="stroke:#181818;stroke-width:1.0;" width="10" x="1203" y="259.6582"/><rect fill="#FFFFFF" height="31.291" style="stroke:#181818;stroke-width:1.0;" width="10" x="1203" y="459.1133"/><rect fill="#FFFFFF" height="31.291" style="stroke:#181818;stroke-width:1.0;" width="10" x="1203" y="615.5684"/><rect fill="#FFFFFF" height="31.291" style="stroke:#181818;stroke-width:1.0;" width="10" x="1348" y="290.9492"/><rect fill="#FFFFFF" height="31.291" style="stroke:#181818;stroke-width:1.0;" width="10" x="1430.5" y="197.0762"/><rect fill="#FFFFFF" height="31.291" style="stroke:#181818;stroke-width:1.0;" width="10" x="1430.5" y="521.6953"/><line style="stroke:#181818;stroke-width:0.5;stroke-dasharray:5.0,5.0;" x1="62" x2="62" y1="38.6211" y2="758.7324"/><line style="stroke:#181818;stroke-width:0.5;stroke-dasharray:5.0,5.0;" x1="283" x2="283" y1="38.6211" y2="758.7324"/><line style="stroke:#181818;stroke-width:0.5;stroke-dasharray:5.0,5.0;" x1="504" x2="504" y1="38.6211" y2="758.7324"/><line style="stroke:#181818;stroke-width:0.5;stroke-dasharray:5.0,5.0;" x1="767.5" x2="767.5" y1="38.6211" y2="758.7324"/><line style="stroke:#181818;stroke-width:0.5;stroke-dasharray:5.0,5.0;" x1="1030" x2="1030" y1="38.6211" y2="758.7324"/><line style="stroke:#181818;stroke-width:0.5;stroke-dasharray:5.0,5.0;" x1="1208" x2="1208" y1="38.6211" y2="758.7324"/><line style="stroke:#181818;stroke-width:0.5;stroke-dasharray:5.0,5.0;" x1="1281" x2="1281" y1="38.6211" y2="758.7324"/><line style="stroke:#181818;stroke-width:0.5;stroke-dasharray:5.0,5.0;" x1="1353" x2="1353" y1="38.6211" y2="758.7324"/><line style="stroke:#181818;stroke-width:0.5;stroke-dasharray:5.0,5.0;" x1="1435" x2="1435" y1="38.6211" y2="758.7324"/><rect fill="#E2E2F0" height="32.6211" rx="2.5" ry="2.5" style="stroke:#181818;stroke-width:0.5;" width="114" x="5" y="5"/><text fill="#000000" font-family="sans-serif" font-size="14" lengthAdjust="spacing" textLength="100" x="12" y="27.1074">RobDroneGo UI</text><rect fill="#E2E2F0" height="32.6211" rx="2.5" ry="2.5" style="stroke:#181818;stroke-width:0.5;" width="114" x="5" y="757.7324"/><text fill="#000000" font-family="sans-serif" font-size="14" lengthAdjust="spacing" textLength="100" x="12" y="779.8398">RobDroneGo UI</text><rect fill="#E2E2F0" height="32.6211" rx="2.5" ry="2.5" style="stroke:#181818;stroke-width:0.5;" width="98" x="234" y="5"/><text fill="#000000" font-family="sans-serif" font-size="14" lengthAdjust="spacing" textLength="84" x="241" y="27.1074">RobDroneGo</text><rect fill="#E2E2F0" height="32.6211" rx="2.5" ry="2.5" style="stroke:#181818;stroke-width:0.5;" width="98" x="234" y="757.7324"/><text fill="#000000" font-family="sans-serif" font-size="14" lengthAdjust="spacing" textLength="84" x="241" y="779.8398">RobDroneGo</text><rect fill="#E2E2F0" height="32.6211" rx="2.5" ry="2.5" style="stroke:#181818;stroke-width:0.5;" width="86" x="461" y="5"/><text fill="#000000" font-family="sans-serif" font-size="14" lengthAdjust="spacing" textLength="72" x="468" y="27.1074">:xController</text><rect fill="#E2E2F0" height="32.6211" rx="2.5" ry="2.5" style="stroke:#181818;stroke-width:0.5;" width="86" x="461" y="757.7324"/><text fill="#000000" font-family="sans-serif" font-size="14" lengthAdjust="spacing" textLength="72" x="468" y="779.8398">:xController</text><rect fill="#E2E2F0" height="32.6211" rx="2.5" ry="2.5" style="stroke:#181818;stroke-width:0.5;" width="71" x="732.5" y="5"/><text fill="#000000" font-family="sans-serif" font-size="14" lengthAdjust="spacing" textLength="57" x="739.5" y="27.1074">:xService</text><rect fill="#E2E2F0" height="32.6211" rx="2.5" ry="2.5" style="stroke:#181818;stroke-width:0.5;" width="71" x="732.5" y="757.7324"/><text fill="#000000" font-family="sans-serif" font-size="14" lengthAdjust="spacing" textLength="57" x="739.5" y="779.8398">:xService</text><rect fill="#E2E2F0" height="32.6211" rx="2.5" ry="2.5" style="stroke:#181818;stroke-width:0.5;" width="92" x="984" y="5"/><text fill="#000000" font-family="sans-serif" font-size="14" lengthAdjust="spacing" textLength="78" x="991" y="27.1074">:xRepository</text><rect fill="#E2E2F0" height="32.6211" rx="2.5" ry="2.5" style="stroke:#181818;stroke-width:0.5;" width="92" x="984" y="757.7324"/><text fill="#000000" font-family="sans-serif" font-size="14" lengthAdjust="spacing" textLength="78" x="991" y="779.8398">:xRepository</text><rect fill="#E2E2F0" height="32.6211" rx="2.5" ry="2.5" style="stroke:#181818;stroke-width:0.5;" width="72" x="1172" y="5"/><text fill="#000000" font-family="sans-serif" font-size="14" lengthAdjust="spacing" textLength="58" x="1179" y="27.1074">:xMapper</text><rect fill="#E2E2F0" height="32.6211" rx="2.5" ry="2.5" style="stroke:#181818;stroke-width:0.5;" width="72" x="1172" y="757.7324"/><text fill="#000000" font-family="sans-serif" font-size="14" lengthAdjust="spacing" textLength="58" x="1179" y="779.8398">:xMapper</text><rect fill="#E2E2F0" height="32.6211" rx="2.5" ry="2.5" style="stroke:#181818;stroke-width:0.5;" width="54" x="1254" y="5"/><text fill="#000000" font-family="sans-serif" font-size="14" lengthAdjust="spacing" textLength="40" x="1261" y="27.1074">:xDTO</text><rect fill="#E2E2F0" height="32.6211" rx="2.5" ry="2.5" style="stroke:#181818;stroke-width:0.5;" width="54" x="1254" y="757.7324"/><text fill="#000000" font-family="sans-serif" font-size="14" lengthAdjust="spacing" textLength="40" x="1261" y="779.8398">:xDTO</text><rect fill="#E2E2F0" height="32.6211" rx="2.5" ry="2.5" style="stroke:#181818;stroke-width:0.5;" width="70" x="1318" y="5"/><text fill="#000000" font-family="sans-serif" font-size="14" lengthAdjust="spacing" textLength="56" x="1325" y="27.1074">domain:x</text><rect fill="#E2E2F0" height="32.6211" rx="2.5" ry="2.5" style="stroke:#181818;stroke-width:0.5;" width="70" x="1318" y="757.7324"/><text fill="#000000" font-family="sans-serif" font-size="14" lengthAdjust="spacing" textLength="56" x="1325" y="779.8398">domain:x</text><rect fill="#E2E2F0" height="32.6211" rx="2.5" ry="2.5" style="stroke:#181818;stroke-width:0.5;" width="75" x="1398" y="5"/><text fill="#000000" font-family="sans-serif" font-size="14" lengthAdjust="spacing" textLength="61" x="1405" y="27.1074">:xSchema</text><rect fill="#E2E2F0" height="32.6211" rx="2.5" ry="2.5" style="stroke:#181818;stroke-width:0.5;" width="75" x="1398" y="757.7324"/><text fill="#000000" font-family="sans-serif" font-size="14" lengthAdjust="spacing" textLength="61" x="1405" y="779.8398">:xSchema</text><rect fill="#FFFFFF" height="701.1113" style="stroke:#181818;stroke-width:1.0;" width="10" x="57" y="48.6211"/><rect fill="#FFFFFF" height="701.1113" style="stroke:#181818;stroke-width:1.0;" width="10" x="278" y="48.6211"/><rect fill="#FFFFFF" height="606.2383" style="stroke:#181818;stroke-width:1.0;" width="10" x="499" y="103.2031"/><rect fill="#FFFFFF" height="543.6563" style="stroke:#181818;stroke-width:1.0;" width="10" x="763" y="134.4941"/><rect fill="#FFFFFF" height="418.4922" style="stroke:#181818;stroke-width:1.0;" width="10" x="1025" y="165.7852"/><rect fill="#FFFFFF" height="28" style="stroke:#181818;stroke-width:1.0;" width="10" x="1030" y="392.8223"/><rect fill="#FFFFFF" height="93.873" style="stroke:#181818;stroke-width:1.0;" width="10" x="1203" y="259.6582"/><rect fill="#FFFFFF" height="31.291" style="stroke:#181818;stroke-width:1.0;" width="10" x="1203" y="459.1133"/><rect fill="#FFFFFF" height="31.291" style="stroke:#181818;stroke-width:1.0;" width="10" x="1203" y="615.5684"/><rect fill="#FFFFFF" height="31.291" style="stroke:#181818;stroke-width:1.0;" width="10" x="1348" y="290.9492"/><rect fill="#FFFFFF" height="31.291" style="stroke:#181818;stroke-width:1.0;" width="10" x="1430.5" y="197.0762"/><rect fill="#FFFFFF" height="31.291" style="stroke:#181818;stroke-width:1.0;" width="10" x="1430.5" y="521.6953"/><polygon fill="#181818" points="266,67.9121,276,71.9121,266,75.9121,270,71.9121" style="stroke:#181818;stroke-width:1.0;"/><line style="stroke:#181818;stroke-width:1.0;" x1="67" x2="272" y1="71.9121" y2="71.9121"/><text fill="#000000" font-family="sans-serif" font-size="13" font-weight="bold" lengthAdjust="spacing" textLength="7" x="74" y="66.6494">1</text><text fill="#000000" font-family="sans-serif" font-size="13" lengthAdjust="spacing" textLength="41" x="85" y="66.6494">.put(/x)</text><polygon fill="#181818" points="487,99.2031,497,103.2031,487,107.2031,491,103.2031" style="stroke:#181818;stroke-width:1.0;"/><line style="stroke:#181818;stroke-width:1.0;" x1="288" x2="493" y1="103.2031" y2="103.2031"/><text fill="#000000" font-family="sans-serif" font-size="13" font-weight="bold" lengthAdjust="spacing" textLength="7" x="295" y="97.9404">2</text><text fill="#000000" font-family="sans-serif" font-size="13" lengthAdjust="spacing" textLength="128" x="306" y="97.9404">createx(req, res, next)</text><polygon fill="#181818" points="751,130.4941,761,134.4941,751,138.4941,755,134.4941" style="stroke:#181818;stroke-width:1.0;"/><line style="stroke:#181818;stroke-width:1.0;" x1="509" x2="757" y1="134.4941" y2="134.4941"/><text fill="#000000" font-family="sans-serif" font-size="13" font-weight="bold" lengthAdjust="spacing" textLength="7" x="516" y="129.2314">3</text><text fill="#000000" font-family="sans-serif" font-size="13" lengthAdjust="spacing" textLength="224" x="527" y="129.2314">xOrError = updatex(req.Xody as xDTO)</text><polygon fill="#181818" points="1013,161.7852,1023,165.7852,1013,169.7852,1017,165.7852" style="stroke:#181818;stroke-width:1.0;"/><line style="stroke:#181818;stroke-width:1.0;" x1="773" x2="1019" y1="165.7852" y2="165.7852"/><text fill="#000000" font-family="sans-serif" font-size="13" font-weight="bold" lengthAdjust="spacing" textLength="7" x="780" y="160.5225">4</text><text fill="#000000" font-family="sans-serif" font-size="13" lengthAdjust="spacing" textLength="222" x="791" y="160.5225">updatedx = update(xDTO.code, xDTO)</text><polygon fill="#181818" points="1418.5,193.0762,1428.5,197.0762,1418.5,201.0762,1422.5,197.0762" style="stroke:#181818;stroke-width:1.0;"/><line style="stroke:#181818;stroke-width:1.0;" x1="1035" x2="1424.5" y1="197.0762" y2="197.0762"/><text fill="#000000" font-family="sans-serif" font-size="13" font-weight="bold" lengthAdjust="spacing" textLength="7" x="1042" y="191.8135">5</text><text fill="#000000" font-family="sans-serif" font-size="13" lengthAdjust="spacing" textLength="120" x="1053" y="191.8135">find = findOne(query)</text><polygon fill="#181818" points="1046,224.3672,1036,228.3672,1046,232.3672,1042,228.3672" style="stroke:#181818;stroke-width:1.0;"/><line style="stroke:#181818;stroke-width:1.0;stroke-dasharray:2.0,2.0;" x1="1040" x2="1434.5" y1="228.3672" y2="228.3672"/><text fill="#000000" font-family="sans-serif" font-size="13" font-weight="bold" lengthAdjust="spacing" textLength="7" x="1052" y="223.1045">6</text><text fill="#000000" font-family="sans-serif" font-size="13" lengthAdjust="spacing" textLength="42" x="1063" y="223.1045">x found</text><polygon fill="#181818" points="1191,255.6582,1201,259.6582,1191,263.6582,1195,259.6582" style="stroke:#181818;stroke-width:1.0;"/><line style="stroke:#181818;stroke-width:1.0;" x1="1035" x2="1197" y1="259.6582" y2="259.6582"/><text fill="#000000" font-family="sans-serif" font-size="13" font-weight="bold" lengthAdjust="spacing" textLength="7" x="1042" y="254.3955">7</text><text fill="#000000" font-family="sans-serif" font-size="13" lengthAdjust="spacing" textLength="138" x="1053" y="254.3955">x = toDomain(xCreated)</text><polygon fill="#181818" points="1336,286.9492,1346,290.9492,1336,294.9492,1340,290.9492" style="stroke:#181818;stroke-width:1.0;"/><line style="stroke:#181818;stroke-width:1.0;" x1="1213" x2="1342" y1="290.9492" y2="290.9492"/><text fill="#000000" font-family="sans-serif" font-size="13" font-weight="bold" lengthAdjust="spacing" textLength="7" x="1220" y="285.6865">8</text><text fill="#000000" font-family="sans-serif" font-size="13" lengthAdjust="spacing" textLength="96" x="1231" y="285.6865">create(xCreated)</text><polygon fill="#181818" points="1224,318.2402,1214,322.2402,1224,326.2402,1220,322.2402" style="stroke:#181818;stroke-width:1.0;"/><line style="stroke:#181818;stroke-width:1.0;stroke-dasharray:2.0,2.0;" x1="1218" x2="1352" y1="322.2402" y2="322.2402"/><text fill="#000000" font-family="sans-serif" font-size="13" font-weight="bold" lengthAdjust="spacing" textLength="7" x="1230" y="316.9775">9</text><text fill="#000000" font-family="sans-serif" font-size="13" lengthAdjust="spacing" textLength="7" x="1241" y="316.9775">x</text><polygon fill="#181818" points="1046,349.5313,1036,353.5313,1046,357.5313,1042,353.5313" style="stroke:#181818;stroke-width:1.0;"/><line style="stroke:#181818;stroke-width:1.0;stroke-dasharray:2.0,2.0;" x1="1040" x2="1207" y1="353.5313" y2="353.5313"/><text fill="#000000" font-family="sans-serif" font-size="13" font-weight="bold" lengthAdjust="spacing" textLength="14" x="1052" y="348.2686">10</text><text fill="#000000" font-family="sans-serif" font-size="13" lengthAdjust="spacing" textLength="7" x="1070" y="348.2686">x</text><line style="stroke:#181818;stroke-width:1.0;" x1="1040" x2="1082" y1="384.8223" y2="384.8223"/><line style="stroke:#181818;stroke-width:1.0;" x1="1082" x2="1082" y1="384.8223" y2="397.8223"/><line style="stroke:#181818;stroke-width:1.0;" x1="1041" x2="1082" y1="397.8223" y2="397.8223"/><polygon fill="#181818" points="1051,393.8223,1041,397.8223,1051,401.8223,1047,397.8223" style="stroke:#181818;stroke-width:1.0;"/><text fill="#000000" font-family="sans-serif" font-size="13" font-weight="bold" lengthAdjust="spacing" textLength="14" x="1047" y="379.5596">11</text><text fill="#000000" font-family="sans-serif" font-size="13" lengthAdjust="spacing" textLength="89" x="1065" y="379.5596">update x object</text><polygon fill="#181818" points="1191,455.1133,1201,459.1133,1191,463.1133,1195,459.1133" style="stroke:#181818;stroke-width:1.0;"/><line style="stroke:#181818;stroke-width:1.0;" x1="1035" x2="1197" y1="459.1133" y2="459.1133"/><text fill="#000000" font-family="sans-serif" font-size="13" font-weight="bold" lengthAdjust="spacing" textLength="14" x="1042" y="453.8506">12</text><text fill="#000000" font-family="sans-serif" font-size="13" lengthAdjust="spacing" textLength="95" x="1060" y="453.8506">toPersistence(x)</text><polygon fill="#181818" points="1046,486.4043,1036,490.4043,1046,494.4043,1042,490.4043" style="stroke:#181818;stroke-width:1.0;"/><line style="stroke:#181818;stroke-width:1.0;stroke-dasharray:2.0,2.0;" x1="1040" x2="1207" y1="490.4043" y2="490.4043"/><text fill="#000000" font-family="sans-serif" font-size="13" font-weight="bold" lengthAdjust="spacing" textLength="14" x="1052" y="485.1416">13</text><text fill="#000000" font-family="sans-serif" font-size="13" lengthAdjust="spacing" textLength="78" x="1070" y="485.1416">persistence x</text><polygon fill="#181818" points="1418.5,517.6953,1428.5,521.6953,1418.5,525.6953,1422.5,521.6953" style="stroke:#181818;stroke-width:1.0;"/><line style="stroke:#181818;stroke-width:1.0;" x1="1035" x2="1424.5" y1="521.6953" y2="521.6953"/><text fill="#000000" font-family="sans-serif" font-size="13" font-weight="bold" lengthAdjust="spacing" textLength="14" x="1042" y="516.4326">14</text><text fill="#000000" font-family="sans-serif" font-size="13" lengthAdjust="spacing" textLength="141" x="1060" y="516.4326">replaceOne(query, rawx)</text><polygon fill="#181818" points="1046,548.9863,1036,552.9863,1046,556.9863,1042,552.9863" style="stroke:#181818;stroke-width:1.0;"/><line style="stroke:#181818;stroke-width:1.0;stroke-dasharray:2.0,2.0;" x1="1040" x2="1434.5" y1="552.9863" y2="552.9863"/><text fill="#000000" font-family="sans-serif" font-size="13" font-weight="bold" lengthAdjust="spacing" textLength="14" x="1052" y="547.7236">15</text><text fill="#000000" font-family="sans-serif" font-size="13" lengthAdjust="spacing" textLength="57" x="1070" y="547.7236">updated x</text><polygon fill="#181818" points="784,580.2773,774,584.2773,784,588.2773,780,584.2773" style="stroke:#181818;stroke-width:1.0;"/><line style="stroke:#181818;stroke-width:1.0;stroke-dasharray:2.0,2.0;" x1="778" x2="1029" y1="584.2773" y2="584.2773"/><text fill="#000000" font-family="sans-serif" font-size="13" font-weight="bold" lengthAdjust="spacing" textLength="14" x="790" y="579.0146">16</text><text fill="#000000" font-family="sans-serif" font-size="13" lengthAdjust="spacing" textLength="57" x="808" y="579.0146">updated x</text><polygon fill="#181818" points="1191,611.5684,1201,615.5684,1191,619.5684,1195,615.5684" style="stroke:#181818;stroke-width:1.0;"/><line style="stroke:#181818;stroke-width:1.0;" x1="773" x2="1197" y1="615.5684" y2="615.5684"/><text fill="#000000" font-family="sans-serif" font-size="13" font-weight="bold" lengthAdjust="spacing" textLength="14" x="780" y="610.3057">17</text><text fill="#000000" font-family="sans-serif" font-size="13" lengthAdjust="spacing" textLength="219" x="798" y="610.3057">updatedxDTO = toDTO(updatedxDTO)</text><polygon fill="#181818" points="784,642.8594,774,646.8594,784,650.8594,780,646.8594" style="stroke:#181818;stroke-width:1.0;"/><line style="stroke:#181818;stroke-width:1.0;stroke-dasharray:2.0,2.0;" x1="778" x2="1207" y1="646.8594" y2="646.8594"/><text fill="#000000" font-family="sans-serif" font-size="13" font-weight="bold" lengthAdjust="spacing" textLength="14" x="790" y="641.5967">18</text><text fill="#000000" font-family="sans-serif" font-size="13" lengthAdjust="spacing" textLength="79" x="808" y="641.5967">updatedxDTO</text><polygon fill="#181818" points="520,674.1504,510,678.1504,520,682.1504,516,678.1504" style="stroke:#181818;stroke-width:1.0;"/><line style="stroke:#181818;stroke-width:1.0;stroke-dasharray:2.0,2.0;" x1="514" x2="767" y1="678.1504" y2="678.1504"/><text fill="#000000" font-family="sans-serif" font-size="13" font-weight="bold" lengthAdjust="spacing" textLength="14" x="526" y="672.8877">19</text><text fill="#000000" font-family="sans-serif" font-size="13" lengthAdjust="spacing" textLength="79" x="544" y="672.8877">updatedxDTO</text><polygon fill="#181818" points="299,705.4414,289,709.4414,299,713.4414,295,709.4414" style="stroke:#181818;stroke-width:1.0;"/><line style="stroke:#181818;stroke-width:1.0;stroke-dasharray:2.0,2.0;" x1="293" x2="503" y1="709.4414" y2="709.4414"/><text fill="#000000" font-family="sans-serif" font-size="13" font-weight="bold" lengthAdjust="spacing" textLength="14" x="305" y="704.1787">20</text><text fill="#000000" font-family="sans-serif" font-size="13" lengthAdjust="spacing" textLength="169" x="323" y="704.1787">updatedxDTO and status 201</text><polygon fill="#181818" points="78,736.7324,68,740.7324,78,744.7324,74,740.7324" style="stroke:#181818;stroke-width:1.0;"/><line style="stroke:#181818;stroke-width:1.0;stroke-dasharray:2.0,2.0;" x1="72" x2="277" y1="740.7324" y2="740.7324"/><text fill="#000000" font-family="sans-serif" font-size="13" font-weight="bold" lengthAdjust="spacing" textLength="14" x="84" y="735.4697">21</text><text fill="#000000" font-family="sans-serif" font-size="13" lengthAdjust="spacing" textLength="169" x="102" y="735.4697">updatedxDTO and status 201</text><!--SRC=[ZPDFJ-Cm4CNl_XGMfo2LxfzZ9P1GYbOSegA4IhswzY22MjjC7DRzzenjaYPfkyifZkVtFCyl4z4wezlz5f1PWQwMjHNQyQlIR9TeDFmnVFrunKL3Zqj4BDy_JUeBdnljqEnsW97Ov5EW0loe9QHgDQsMO4rJEuE719HJe13MTcSNq-BoUHKhz1oNbDcBMYzyqfrOag-m5r-Eufen9gIhFuI3a46_3XTUF_ARkx3Y2pwthSj- -6iMNcbtazEcH23MPmZlCuxGpBW6xwwFfr0e10Qy8joly07H8B_bhLMTShunwX0SXKiDjHKZLT2Mf4q2vNjj5l2vD0fc9ygIaIPsZNSa-Kkj5Kd3OwKXUsy13wDUAOnESDErzVp5j5en1QTiQb54wfOxiupHPpwFgQZXyGKZBj1zQ6SnjacTuvcZdb7VcngLYix9CIOoPBPl8Dqeaw6e7DftvWcmgHi7MfAnK-FTwVQ8NJBH9uvWTq92dpODYFZhlvFvrwUUT1YatitJUR3ingOOZ0qDIFf6pwjii7V-gjLOEBrebQZy7rGLnxx_UOOk10rYuuHh6_xxvw-HAay_5ydM_r6nJm00]--></g></svg>