<?xml version="1.0" encoding="us-ascii" standalone="no"?><svg xmlns="http://www.w3.org/2000/svg" xmlns:xlink="http://www.w3.org/1999/xlink" contentStyleType="text/css" height="203px" preserveAspectRatio="none" style="width:398px;height:203px;background:#FFFFFF;" version="1.1" viewBox="0 0 398 203" width="398px" zoomAndPan="magnify"><defs/><g><rect fill="#FFFFFF" height="107.873" style="stroke:#181818;stroke-width:1.0;" width="10" x="57" y="48.6211"/><rect fill="#FFFFFF" height="107.873" style="stroke:#181818;stroke-width:1.0;" width="10" x="203" y="48.6211"/><line style="stroke:#181818;stroke-width:0.5;stroke-dasharray:5.0,5.0;" x1="62" x2="62" y1="38.6211" y2="165.4941"/><line style="stroke:#181818;stroke-width:0.5;stroke-dasharray:5.0,5.0;" x1="208" x2="208" y1="38.6211" y2="165.4941"/><rect fill="#E2E2F0" height="32.6211" rx="2.5" ry="2.5" style="stroke:#181818;stroke-width:0.5;" width="114" x="5" y="5"/><text fill="#000000" font-family="sans-serif" font-size="14" lengthAdjust="spacing" textLength="100" x="12" y="27.1074">RobDroneGo UI</text><rect fill="#E2E2F0" height="32.6211" rx="2.5" ry="2.5" style="stroke:#181818;stroke-width:0.5;" width="114" x="5" y="164.4941"/><text fill="#000000" font-family="sans-serif" font-size="14" lengthAdjust="spacing" textLength="100" x="12" y="186.6016">RobDroneGo UI</text><rect fill="#E2E2F0" height="32.6211" rx="2.5" ry="2.5" style="stroke:#181818;stroke-width:0.5;" width="98" x="159" y="5"/><text fill="#000000" font-family="sans-serif" font-size="14" lengthAdjust="spacing" textLength="84" x="166" y="27.1074">RobDroneGo</text><rect fill="#E2E2F0" height="32.6211" rx="2.5" ry="2.5" style="stroke:#181818;stroke-width:0.5;" width="98" x="159" y="164.4941"/><text fill="#000000" font-family="sans-serif" font-size="14" lengthAdjust="spacing" textLength="84" x="166" y="186.6016">RobDroneGo</text><rect fill="#FFFFFF" height="107.873" style="stroke:#181818;stroke-width:1.0;" width="10" x="57" y="48.6211"/><rect fill="#FFFFFF" height="107.873" style="stroke:#181818;stroke-width:1.0;" width="10" x="203" y="48.6211"/><polygon fill="#181818" points="191,67.9121,201,71.9121,191,75.9121,195,71.9121" style="stroke:#181818;stroke-width:1.0;"/><line style="stroke:#181818;stroke-width:1.0;" x1="67" x2="197" y1="71.9121" y2="71.9121"/><text fill="#000000" font-family="sans-serif" font-size="13" lengthAdjust="spacing" textLength="60" x="74" y="66.6494">1 : .get(/x)</text><line style="stroke:#181818;stroke-width:1.0;" x1="213" x2="255" y1="103.2031" y2="103.2031"/><line style="stroke:#181818;stroke-width:1.0;" x1="255" x2="255" y1="103.2031" y2="116.2031"/><line style="stroke:#181818;stroke-width:1.0;" x1="214" x2="255" y1="116.2031" y2="116.2031"/><polygon fill="#181818" points="224,112.2031,214,116.2031,224,120.2031,220,116.2031" style="stroke:#181818;stroke-width:1.0;"/><text fill="#000000" font-family="sans-serif" font-size="13" lengthAdjust="spacing" textLength="171" x="220" y="97.9404">1.1 : get all x's from database</text><polygon fill="#181818" points="78,143.4941,68,147.4941,78,151.4941,74,147.4941" style="stroke:#181818;stroke-width:1.0;"/><line style="stroke:#181818;stroke-width:1.0;stroke-dasharray:2.0,2.0;" x1="72" x2="202" y1="147.4941" y2="147.4941"/><text fill="#000000" font-family="sans-serif" font-size="13" lengthAdjust="spacing" textLength="112" x="84" y="142.2314">2 : response status</text><!--SRC=[ROgn2W8n44JxVCLmZLfuegM580YIJeHymDwvIk2yXEmgz_bc5RIn66QOzp8LZNtCD2gQS-eE9OryJ0Y-0Kajb_yRRxm_UUUer_WaPPE_sqZmMEviOOjrJNjZdQ-cXRFhHrfZ5O660TDCS2tfZWifTIJyaQiTJDxK59QSHc68aZx4lG00]--></g></svg>