<?xml version="1.0" encoding="us-ascii" standalone="no"?><svg xmlns="http://www.w3.org/2000/svg" xmlns:xlink="http://www.w3.org/1999/xlink" contentStyleType="text/css" height="402px" preserveAspectRatio="none" style="width:481px;height:402px;background:#FFFFFF;" version="1.1" viewBox="0 0 481 402" width="481px" zoomAndPan="magnify"><defs/><g><rect fill="#FFFFFF" height="233.0371" style="stroke:#181818;stroke-width:1.0;" width="10" x="57" y="79.6211"/><rect fill="#FFFFFF" height="233.0371" style="stroke:#181818;stroke-width:1.0;" width="10" x="212" y="79.6211"/><rect fill="#FFFFFF" height="31.291" style="stroke:#181818;stroke-width:1.0;" width="10" x="441" y="134.2031"/><rect fill="#FFFFFF" height="31.291" style="stroke:#181818;stroke-width:1.0;" width="10" x="441" y="241.0762"/><line style="stroke:#181818;stroke-width:0.5;stroke-dasharray:5.0,5.0;" x1="62" x2="62" y1="69.6211" y2="321.6582"/><line style="stroke:#181818;stroke-width:0.5;stroke-dasharray:5.0,5.0;" x1="216.5" x2="216.5" y1="69.6211" y2="321.6582"/><line style="stroke:#181818;stroke-width:0.5;stroke-dasharray:5.0,5.0;" x1="446" x2="446" y1="69.6211" y2="321.6582"/><rect fill="#E2E2F0" height="32.6211" rx="2.5" ry="2.5" style="stroke:#181818;stroke-width:0.5;" width="114" x="5" y="36"/><text fill="#000000" font-family="sans-serif" font-size="14" lengthAdjust="spacing" textLength="100" x="12" y="58.1074">RobDroneGo UI</text><rect fill="#E2E2F0" height="32.6211" rx="2.5" ry="2.5" style="stroke:#181818;stroke-width:0.5;" width="114" x="5" y="320.6582"/><text fill="#000000" font-family="sans-serif" font-size="14" lengthAdjust="spacing" textLength="100" x="12" y="342.7656">RobDroneGo UI</text><rect fill="#E2E2F0" height="32.6211" rx="2.5" ry="2.5" style="stroke:#181818;stroke-width:0.5;" width="123" x="155.5" y="36"/><text fill="#000000" font-family="sans-serif" font-size="14" lengthAdjust="spacing" textLength="109" x="162.5" y="58.1074">RobDroneGo MD</text><rect fill="#E2E2F0" height="32.6211" rx="2.5" ry="2.5" style="stroke:#181818;stroke-width:0.5;" width="123" x="155.5" y="320.6582"/><text fill="#000000" font-family="sans-serif" font-size="14" lengthAdjust="spacing" textLength="109" x="162.5" y="342.7656">RobDroneGo MD</text><text fill="#000000" font-family="sans-serif" font-size="14" lengthAdjust="spacing" textLength="62" x="412" y="66.1074">mongoDB</text><path d="M428,15 C428,5 446,5 446,5 C446,5 464,5 464,15 L464,41 C464,51 446,51 446,51 C446,51 428,51 428,41 L428,15 " fill="#E2E2F0" style="stroke:#181818;stroke-width:1.5;"/><path d="M428,15 C428,25 446,25 446,25 C446,25 464,25 464,15 " fill="none" style="stroke:#181818;stroke-width:1.5;"/><text fill="#000000" font-family="sans-serif" font-size="14" lengthAdjust="spacing" textLength="62" x="412" y="335.7656">mongoDB</text><path d="M428,349.2793 C428,339.2793 446,339.2793 446,339.2793 C446,339.2793 464,339.2793 464,349.2793 L464,375.2793 C464,385.2793 446,385.2793 446,385.2793 C446,385.2793 428,385.2793 428,375.2793 L428,349.2793 " fill="#E2E2F0" style="stroke:#181818;stroke-width:1.5;"/><path d="M428,349.2793 C428,359.2793 446,359.2793 446,359.2793 C446,359.2793 464,359.2793 464,349.2793 " fill="none" style="stroke:#181818;stroke-width:1.5;"/><rect fill="#FFFFFF" height="233.0371" style="stroke:#181818;stroke-width:1.0;" width="10" x="57" y="79.6211"/><rect fill="#FFFFFF" height="233.0371" style="stroke:#181818;stroke-width:1.0;" width="10" x="212" y="79.6211"/><rect fill="#FFFFFF" height="31.291" style="stroke:#181818;stroke-width:1.0;" width="10" x="441" y="134.2031"/><rect fill="#FFFFFF" height="31.291" style="stroke:#181818;stroke-width:1.0;" width="10" x="441" y="241.0762"/><polygon fill="#181818" points="200,98.9121,210,102.9121,200,106.9121,204,102.9121" style="stroke:#181818;stroke-width:1.0;"/><line style="stroke:#181818;stroke-width:1.0;" x1="67" x2="206" y1="102.9121" y2="102.9121"/><text fill="#000000" font-family="sans-serif" font-size="13" lengthAdjust="spacing" textLength="60" x="74" y="97.6494">1 : .put(/x)</text><polygon fill="#181818" points="429,130.2031,439,134.2031,429,138.2031,433,134.2031" style="stroke:#181818;stroke-width:1.0;"/><line style="stroke:#181818;stroke-width:1.0;" x1="222" x2="435" y1="134.2031" y2="134.2031"/><text fill="#000000" font-family="sans-serif" font-size="13" lengthAdjust="spacing" textLength="166" x="229" y="128.9404">1.1 : .find(/x) in the database</text><polygon fill="#181818" points="233,161.4941,223,165.4941,233,169.4941,229,165.4941" style="stroke:#181818;stroke-width:1.0;"/><line style="stroke:#181818;stroke-width:1.0;stroke-dasharray:2.0,2.0;" x1="227" x2="445" y1="165.4941" y2="165.4941"/><text fill="#000000" font-family="sans-serif" font-size="13" lengthAdjust="spacing" textLength="123" x="239" y="160.2314">1.2 : response status</text><line style="stroke:#181818;stroke-width:1.0;" x1="222" x2="264" y1="196.7852" y2="196.7852"/><line style="stroke:#181818;stroke-width:1.0;" x1="264" x2="264" y1="196.7852" y2="209.7852"/><line style="stroke:#181818;stroke-width:1.0;" x1="223" x2="264" y1="209.7852" y2="209.7852"/><polygon fill="#181818" points="233,205.7852,223,209.7852,233,213.7852,229,209.7852" style="stroke:#181818;stroke-width:1.0;"/><text fill="#000000" font-family="sans-serif" font-size="13" lengthAdjust="spacing" textLength="109" x="229" y="191.5225">1.1 : updates the x</text><polygon fill="#181818" points="429,237.0762,439,241.0762,429,245.0762,433,241.0762" style="stroke:#181818;stroke-width:1.0;"/><line style="stroke:#181818;stroke-width:1.0;" x1="222" x2="435" y1="241.0762" y2="241.0762"/><text fill="#000000" font-family="sans-serif" font-size="13" lengthAdjust="spacing" textLength="200" x="229" y="235.8135">1.3 : .put(/x) update x on database</text><polygon fill="#181818" points="233,268.3672,223,272.3672,233,276.3672,229,272.3672" style="stroke:#181818;stroke-width:1.0;"/><line style="stroke:#181818;stroke-width:1.0;stroke-dasharray:2.0,2.0;" x1="227" x2="445" y1="272.3672" y2="272.3672"/><text fill="#000000" font-family="sans-serif" font-size="13" lengthAdjust="spacing" textLength="123" x="239" y="267.1045">1.4 : response status</text><polygon fill="#181818" points="78,299.6582,68,303.6582,78,307.6582,74,303.6582" style="stroke:#181818;stroke-width:1.0;"/><line style="stroke:#181818;stroke-width:1.0;stroke-dasharray:2.0,2.0;" x1="72" x2="211" y1="303.6582" y2="303.6582"/><text fill="#000000" font-family="sans-serif" font-size="13" lengthAdjust="spacing" textLength="121" x="84" y="298.3955">2 : success or failure</text><!--SRC=[ZOwnQWCn44HxVSLoLLBuWfDKBWm-1E6AG0ZS1wplrhR0beHs5UxpenLsx1GXBYGjcfsP5p696rr4Bz1yXgrDmTDRWA5l0Bay9lwnyMxhnkQZDnCARf49cbFm-s2xgdJM61p5VQ6G1ltCQXbwMAnrWXKiosbZbeUd-T7eLr4wgq9RfPtpashWFCY1u59tJTIgubXS8zldSYVY67pXOa79R2RwvJXNNHpQbMC99wurixc5MROlDvZdHPWX-FjuNl_bgMN5CQX1yJcF8p53IB13Tyo9p3S0]--></g></svg>