<svg fill="#ffffff" height="200px" width="200px" version="1.1" id="Layer_1" xmlns="http://www.w3.org/2000/svg" xmlns:xlink="http://www.w3.org/1999/xlink" viewBox="0 0 512 512" xml:space="preserve" stroke="#ffffff"><g id="SVGRepo_bgCarrier" stroke-width="0"></g><g id="SVGRepo_tracerCarrier" stroke-linecap="round" stroke-linejoin="round"></g><g id="SVGRepo_iconCarrier"> <g> <g> <path d="M401.61,206.609l-52.822-72.632c12.202-14.206,19.602-32.653,19.602-52.807C368.39,36.413,331.977,0,287.219,0 c-42.161,0-76.905,32.315-80.796,73.476l-97.708,106.591c-30.659,11.607-52.52,41.258-52.52,75.933s21.861,64.326,52.52,75.933 l73.483,80.164H56.195V512h337.171v-99.902h-47.954l-128.46-140.137c1.034-5.162,1.585-10.497,1.585-15.961 s-0.551-10.798-1.585-15.961l71.245-77.723c10.732-0.129,20.97-2.335,30.323-6.26l42.808,58.863 c-18.196,10.923-30.402,30.845-30.402,53.569v49.951h37.463v-49.951c0-13.772,11.204-24.976,24.976-24.976 c13.772,0,24.976,11.204,24.976,24.976v49.951h37.463v-49.951C455.805,236.855,432.154,210.658,401.61,206.609z M93.659,256 c0-24.1,19.607-43.707,43.707-43.707S181.073,231.9,181.073,256s-19.607,43.707-43.707,43.707S93.659,280.1,93.659,256z M355.902,449.561v24.976H93.659v-24.976H355.902z M294.589,412.098H233.02l-71.934-78.471 c15.117-4.629,28.362-13.564,38.319-25.365L294.589,412.098z M199.406,203.739c-9.957-11.801-23.201-20.736-38.319-25.365 l54.376-59.317c7.237,13.652,18.253,24.993,31.649,32.641L199.406,203.739z M287.219,124.878c-24.1,0-43.707-19.607-43.707-43.707 s19.607-43.707,43.707-43.707c24.1,0,43.707,19.607,43.707,43.707S311.32,124.878,287.219,124.878z"></path> </g> </g> </g></svg>