<?xml version="1.0" encoding="iso-8859-1"?>
<!-- Uploaded to: SVG Repo, www.svgrepo.com, Generator: SVG Repo Mixer Tools -->
<svg fill="#000000" height="800px" width="800px" version="1.1" id="Layer_1" xmlns="http://www.w3.org/2000/svg" xmlns:xlink="http://www.w3.org/1999/xlink" 
	 viewBox="0 0 512 512" xml:space="preserve">
<g>
	<g>
		<path d="M488.727,0h-77.576c-12.851,0-23.273,10.42-23.273,23.273c0,12.853,10.422,23.273,23.273,23.273h54.303v186.182h-69.818
			c-12.851,0-23.273,10.42-23.273,23.273c0,12.853,10.422,23.273,23.273,23.273h69.818v186.182H237.41v-69.818
			c0-12.853-10.418-23.273-23.273-23.273c-12.851,0-23.273,10.42-23.273,23.273v69.818H46.545V279.273h144.319v23.273
			c0,12.853,10.422,23.273,23.273,23.273c12.854,0,23.273-10.42,23.273-23.273v-23.273h49.621c12.854,0,23.273-10.42,23.273-23.273
			c0-12.853-10.418-23.273-23.273-23.273H237.41v-23.273c0-12.853-10.418-23.273-23.273-23.273
			c-12.851,0-23.273,10.42-23.273,23.273v23.273H46.545V46.545h144.319v69.818c0,12.853,10.422,23.273,23.273,23.273
			c12.854,0,23.273-10.42,23.273-23.273V46.545h65.136c12.854,0,23.273-10.42,23.273-23.273C325.818,10.42,315.4,0,302.545,0
			h-88.408H23.273C10.422,0,0,10.42,0,23.273V256v232.727C0,501.58,10.422,512,23.273,512h190.864h274.59
			C501.582,512,512,501.58,512,488.727V256V23.273C512,10.42,501.582,0,488.727,0z"/>
	</g>
</g>
</svg>