<?xml version="1.0" encoding="us-ascii" standalone="no"?><svg xmlns="http://www.w3.org/2000/svg" xmlns:xlink="http://www.w3.org/1999/xlink" contentStyleType="text/css" height="249px" preserveAspectRatio="none" style="width:253px;height:249px;background:#FFFFFF;" version="1.1" viewBox="0 0 253 249" width="253px" zoomAndPan="magnify"><defs/><g><rect fill="#FFFFFF" height="63.582" style="stroke:#181818;stroke-width:1.0;" width="10" x="21" y="93.6211"/><rect fill="#FFFFFF" height="31.291" style="stroke:#181818;stroke-width:1.0;" width="10" x="190" y="116.9121"/><line style="stroke:#181818;stroke-width:0.5;stroke-dasharray:5.0,5.0;" x1="26" x2="26" y1="83.6211" y2="166.2031"/><line style="stroke:#181818;stroke-width:0.5;stroke-dasharray:5.0,5.0;" x1="194.5" x2="194.5" y1="83.6211" y2="166.2031"/><text fill="#000000" font-family="sans-serif" font-size="14" lengthAdjust="spacing" textLength="36" x="5" y="80.1074">Client</text><ellipse cx="26" cy="13.5" fill="#E2E2F0" rx="8" ry="8" style="stroke:#181818;stroke-width:0.5;"/><path d="M26,21.5 L26,48.5 M13,29.5 L39,29.5 M26,48.5 L13,63.5 M26,48.5 L39,63.5 " fill="none" style="stroke:#181818;stroke-width:0.5;"/><text fill="#000000" font-family="sans-serif" font-size="14" lengthAdjust="spacing" textLength="36" x="5" y="180.3105">Client</text><ellipse cx="26" cy="192.3242" fill="#E2E2F0" rx="8" ry="8" style="stroke:#181818;stroke-width:0.5;"/><path d="M26,200.3242 L26,227.3242 M13,208.3242 L39,208.3242 M26,227.3242 L13,242.3242 M26,227.3242 L39,242.3242 " fill="none" style="stroke:#181818;stroke-width:0.5;"/><rect fill="#E2E2F0" height="32.6211" rx="2.5" ry="2.5" style="stroke:#181818;stroke-width:0.5;" width="105" x="142.5" y="50"/><text fill="#000000" font-family="sans-serif" font-size="14" lengthAdjust="spacing" textLength="91" x="149.5" y="72.1074">:RobDroneGO</text><rect fill="#E2E2F0" height="32.6211" rx="2.5" ry="2.5" style="stroke:#181818;stroke-width:0.5;" width="105" x="142.5" y="165.2031"/><text fill="#000000" font-family="sans-serif" font-size="14" lengthAdjust="spacing" textLength="91" x="149.5" y="187.3105">:RobDroneGO</text><rect fill="#FFFFFF" height="63.582" style="stroke:#181818;stroke-width:1.0;" width="10" x="21" y="93.6211"/><rect fill="#FFFFFF" height="31.291" style="stroke:#181818;stroke-width:1.0;" width="10" x="190" y="116.9121"/><polygon fill="#181818" points="178,112.9121,188,116.9121,178,120.9121,182,116.9121" style="stroke:#181818;stroke-width:1.0;"/><line style="stroke:#181818;stroke-width:1.0;" x1="31" x2="184" y1="116.9121" y2="116.9121"/><text fill="#000000" font-family="sans-serif" font-size="13" lengthAdjust="spacing" textLength="106" x="38" y="111.6494">1 : requests all x's</text><polygon fill="#181818" points="42,144.2031,32,148.2031,42,152.2031,38,148.2031" style="stroke:#181818;stroke-width:1.0;"/><line style="stroke:#181818;stroke-width:1.0;stroke-dasharray:2.0,2.0;" x1="36" x2="194" y1="148.2031" y2="148.2031"/><text fill="#000000" font-family="sans-serif" font-size="13" lengthAdjust="spacing" textLength="135" x="48" y="142.9404">1.1 : return List with x's</text><!--SRC=[IqmkoIzIK7BEoKpDAr5II2nMy7VbuafCBiaiIon91N7yNHLqxHIKh8BoaroAylDItVsL5AmK386uABMmDBMuf5WXCIT7eKAz6A4DHJKNgbvTe6b0Cu56w44CAIajobFmoImkKIZFBCa06vIIYiCeBYu0]--></g></svg>